<svg width="32" height="32" viewBox="0 0 32 32" fill="none" xmlns="http://www.w3.org/2000/svg">
<rect width="32" height="32" rx="16" fill="#0E1325" fill-opacity="0.05"/>
<path d="M20.7578 13.5625C20.7812 13.6562 20.7812 13.7734 20.7812 13.8672C20.7812 17.125 18.2969 20.875 13.7734 20.875C12.3906 20.875 11.0781 20.4766 10 19.7734C10.1875 19.7969 10.3984 19.7969 10.5859 19.7969C11.7344 19.7969 12.8125 19.4219 13.6562 18.7422C12.5781 18.7188 11.6641 18.0156 11.3594 17.0547C11.5 17.0781 11.6641 17.0781 11.8047 17.0781C12.0391 17.0781 12.25 17.0547 12.4609 17.0078C11.3359 16.7734 10.4922 15.7891 10.4922 14.5938V14.5469C10.8203 14.7344 11.1953 14.8516 11.5938 14.875C10.9375 14.4297 10.4922 13.6797 10.4922 12.8125C10.4922 12.3672 10.6328 11.9453 10.8438 11.5703C12.0391 13.0703 13.8672 14.0312 15.9062 14.1484C15.8828 13.9609 15.8594 13.7734 15.8594 13.5859C15.8594 12.2266 16.9375 11.125 18.2969 11.125C19.0234 11.125 19.6562 11.4297 20.1016 11.8984C20.6641 11.8047 21.2031 11.5938 21.6719 11.3125C21.4844 11.875 21.0859 12.3672 20.5938 12.6719C21.0859 12.6016 21.5547 12.4844 22 12.2734C21.6719 12.7656 21.25 13.2109 20.7578 13.5625Z" fill="#0E1325"/>
</svg>
