<svg width="56" height="56" viewBox="0 0 56 56" fill="none" xmlns="http://www.w3.org/2000/svg">
<rect width="56" height="56" rx="28" fill="#FA7027" fill-opacity="0.2"/>
<path d="M33.1309 17.7879L38.709 23.366C39.0781 23.7352 39.0781 24.3914 38.709 24.7606L33.1309 30.3387C32.8438 30.6258 32.3926 30.7078 32.0234 30.5438C31.6543 30.3797 31.4492 30.0516 31.4492 29.6414V27.3445H29.5215C28.0449 27.3445 26.8555 28.534 26.8555 30.0106C26.8555 30.5027 26.9375 30.8719 27.1016 31.118C27.3477 31.5281 27.2656 32.0203 26.9375 32.3484C26.5684 32.6766 26.0762 32.6766 25.666 32.4305C25.3789 32.1844 25.0098 31.9383 24.6816 31.5692C23.7383 30.6258 22.918 29.2723 22.918 27.3445C22.918 23.7352 25.8301 20.782 29.4805 20.782H31.4492V18.4852C31.4492 18.075 31.6543 17.7469 32.0234 17.5828C32.3926 17.4188 32.8438 17.5008 33.1309 17.7879ZM33.418 21.7664C33.418 22.2996 32.9668 22.7508 32.4336 22.7508H29.4805C26.9375 22.7508 24.8867 24.8016 24.8867 27.3445C24.8867 27.8367 24.9277 28.2469 25.0918 28.657C25.666 26.7703 27.4297 25.3758 29.5215 25.3758H32.4336C32.9668 25.3758 33.418 25.827 33.418 26.3602V27.2625L36.6172 24.0633L33.418 20.8641V21.7664ZM20.293 21.4383H21.2773C21.8105 21.4383 22.2617 21.8895 22.2617 22.4227C22.2617 22.9559 21.8105 23.407 21.2773 23.407H20.293C19.5547 23.407 18.9805 23.9813 18.9805 24.7195V35.2195C18.9805 35.9578 19.5547 36.532 20.293 36.532H30.793C31.4902 36.532 32.1055 35.9578 32.1055 35.2195V34.2352C32.1055 33.702 32.5156 33.2508 33.0898 33.2508C33.623 33.2508 34.0742 33.702 34.0742 34.2352V35.2195C34.0742 37.0242 32.5977 38.5008 30.793 38.5008H20.293C18.4473 38.5008 17.0117 37.0242 17.0117 35.2195V24.7195C17.0117 22.9149 18.4473 21.4383 20.293 21.4383Z" fill="#FA7027"/>
</svg>
