<svg width="32" height="32" viewBox="0 0 32 32" fill="none" xmlns="http://www.w3.org/2000/svg">
<rect width="32" height="32" rx="16" fill="#0E1325" fill-opacity="0.05"/>
<path d="M15.9883 13.3076C17.4883 13.3076 18.6836 14.5264 18.6836 16.0029C18.6836 17.5029 17.4648 18.6982 15.9883 18.6982C14.4883 18.6982 13.293 17.4795 13.293 16.0029C13.293 14.5029 14.5117 13.3076 15.9883 13.3076ZM15.9883 14.2451C15.0039 14.2686 14.2305 15.042 14.2305 16.0029C14.2539 16.9873 15.0273 17.7607 15.9883 17.7607C16.9727 17.7373 17.7461 16.9639 17.7461 16.0029C17.7227 15.0186 16.9492 14.2451 15.9883 14.2451ZM18.168 13.1904C18.168 13.542 18.4492 13.8232 18.8008 13.8232C19.1523 13.8232 19.4336 13.542 19.4336 13.1904C19.4336 12.8389 19.1523 12.5811 18.8008 12.5811C18.4492 12.5811 18.168 12.8389 18.168 13.1904ZM21.2148 13.8467C21.2617 14.7139 21.2617 17.292 21.2148 18.1592C21.168 19.0029 20.9805 19.7529 20.3711 20.3623C19.7383 20.9951 19.0117 21.1826 18.168 21.2061C17.3008 21.2764 14.6992 21.2764 13.832 21.2061C12.9883 21.1826 12.2383 20.9717 11.6289 20.3623C11.0195 19.7529 10.8086 19.0029 10.7852 18.1592C10.7383 17.292 10.7383 14.6904 10.7852 13.8232C10.832 13.0029 11.0195 12.2529 11.6289 11.6436C12.2383 11.0107 12.9883 10.8232 13.832 10.7764C14.6992 10.7295 17.3008 10.7295 18.168 10.7764C19.0117 10.8232 19.7383 11.0107 20.3711 11.6436C20.9805 12.2529 21.168 13.0029 21.2148 13.8467ZM20.0898 19.0967C20.3711 18.417 20.3008 16.7764 20.3008 16.0029C20.3008 15.2295 20.3711 13.5889 20.0898 12.9092C19.9023 12.4404 19.5508 12.0889 19.082 11.9014C18.4023 11.6436 16.7617 11.6904 15.9883 11.6904C15.2383 11.6904 13.5977 11.6436 12.8945 11.9014C12.4492 12.0889 12.0742 12.4404 11.9102 12.9092C11.6289 13.5889 11.6992 15.2295 11.6992 16.0029C11.6992 16.7764 11.6289 18.417 11.9102 19.0967C12.0977 19.5654 12.4492 19.917 12.8945 20.1045C13.5977 20.3623 15.2383 20.3154 15.9883 20.3154C16.7617 20.3154 18.4023 20.3623 19.082 20.1045C19.5508 19.917 19.9023 19.5654 20.0898 19.0967Z" fill="#0E1325"/>
</svg>
