<svg width="32" height="32" viewBox="0 0 32 32" fill="none" xmlns="http://www.w3.org/2000/svg">
<rect width="32" height="32" rx="16" fill="#0E1325" fill-opacity="0.05"/>
<path d="M20.5 10.75C20.9219 10.75 21.25 11.1016 21.25 11.5V20.5C21.25 20.9219 20.9219 21.25 20.5 21.25H11.5C11.0781 21.25 10.75 20.9219 10.75 20.5V11.5C10.75 11.1016 11.0781 10.75 11.5 10.75H20.5ZM13.9375 19.75V14.7344H12.3672V19.75H13.9375ZM13.1406 12.25C12.6484 12.25 12.25 12.6484 12.25 13.1641C12.25 13.6562 12.6484 14.0547 13.1406 14.0547C13.6328 14.0547 14.0547 13.6562 14.0547 13.1641C14.0547 12.6484 13.6328 12.25 13.1406 12.25ZM19.75 19.75V17.0078C19.75 15.6484 19.4688 14.6172 17.8984 14.6172C17.125 14.6172 16.6328 15.0391 16.4219 15.4141H16.3984V14.7344H14.8984V19.75H16.4688V17.2656C16.4688 16.6094 16.5859 15.9766 17.3828 15.9766C18.1797 15.9766 18.2031 16.7266 18.2031 17.3125V19.75H19.75Z" fill="#0E1325"/>
</svg>
