<svg width="56" height="56" viewBox="0 0 56 56" fill="none" xmlns="http://www.w3.org/2000/svg">
<rect width="56" height="56" rx="28" fill="#FA7027" fill-opacity="0.2"/>
<path d="M21.1176 34V37V19V34ZM26.4118 22C26.7118 22 26.9632 21.9042 27.1662 21.7125C27.3691 21.5208 27.4706 21.2833 27.4706 21C27.4706 20.7167 27.3691 20.4792 27.1662 20.2875C26.9632 20.0958 26.7118 20 26.4118 20C26.1118 20 25.8603 20.0958 25.6574 20.2875C25.4544 20.4792 25.3529 20.7167 25.3529 21C25.3529 21.2833 25.4544 21.5208 25.6574 21.7125C25.8603 21.9042 26.1118 22 26.4118 22ZM31.7059 34H33.8235V37C33.8235 37.55 33.6162 38.0208 33.2015 38.4125C32.7868 38.8042 32.2882 39 31.7059 39H21.1176C20.5353 39 20.0368 38.8042 19.6221 38.4125C19.2074 38.0208 19 37.55 19 37V19C19 18.45 19.2074 17.9792 19.6221 17.5875C20.0368 17.1958 20.5353 17 21.1176 17H31.7059C32.2882 17 32.7868 17.1958 33.2015 17.5875C33.6162 17.9792 33.8235 18.45 33.8235 19V22H31.7059V19H21.1176V37H31.7059V34ZM29.0588 32C28.6176 32 28.2426 31.8542 27.9338 31.5625C27.625 31.2708 27.4706 30.9167 27.4706 30.5V26.5C27.4706 26.0833 27.625 25.7292 27.9338 25.4375C28.2426 25.1458 28.6176 25 29.0588 25H30.1176L31.1765 24H33.2941L34.3529 25H35.4118C35.8529 25 36.2279 25.1458 36.5368 25.4375C36.8456 25.7292 37 26.0833 37 26.5V30.5C37 30.9167 36.8456 31.2708 36.5368 31.5625C36.2279 31.8542 35.8529 32 35.4118 32H29.0588ZM32.2353 30.25C32.7471 30.25 33.1838 30.0792 33.5456 29.7375C33.9074 29.3958 34.0882 28.9833 34.0882 28.5C34.0882 28.0167 33.9074 27.6042 33.5456 27.2625C33.1838 26.9208 32.7471 26.75 32.2353 26.75C31.7235 26.75 31.2868 26.9208 30.925 27.2625C30.5632 27.6042 30.3824 28.0167 30.3824 28.5C30.3824 28.9833 30.5632 29.3958 30.925 29.7375C31.2868 30.0792 31.7235 30.25 32.2353 30.25Z" fill="#FA7027"/>
</svg>
