<svg width="56" height="56" viewBox="0 0 56 56" fill="none" xmlns="http://www.w3.org/2000/svg">
<rect width="56" height="56" rx="28" fill="#FA7027" fill-opacity="0.2"/>
<path d="M36.2031 36.5312L22.0938 36.5312C21.3555 36.5312 20.7813 35.957 20.7813 35.2187L20.7813 18.4844C20.7813 17.9512 20.3301 17.5 19.7969 17.5C19.2637 17.5 18.8125 17.9512 18.8125 18.4844L18.8125 35.2187C18.8125 37.0234 20.2891 38.5 22.0938 38.5L36.2031 38.5C36.7363 38.5 37.1875 38.0488 37.1875 37.5156C37.1875 36.9824 36.7363 36.5312 36.2031 36.5312ZM33.25 32.2656C33.25 32.7988 33.7012 33.25 34.2344 33.25C34.7676 33.25 35.2188 32.7988 35.2188 32.2656L35.2188 23.7344C35.2188 23.2012 34.7676 22.75 34.2344 22.75C33.7012 22.75 33.25 23.2012 33.25 23.7344L33.25 32.2656ZM30.625 32.2656L30.625 26.3594C30.625 25.8262 30.1738 25.375 29.6406 25.375C29.1074 25.375 28.6563 25.8262 28.6563 26.3594L28.6563 32.2656C28.6563 32.7988 29.1074 33.25 29.6406 33.25C30.1738 33.25 30.625 32.7988 30.625 32.2656ZM26.0313 32.2656L26.0313 21.1094C26.0313 20.5762 25.5801 20.125 25.0469 20.125C24.5137 20.125 24.0625 20.5762 24.0625 21.1094L24.0625 32.2656C24.0625 32.7988 24.5137 33.25 25.0469 33.25C25.5801 33.25 26.0313 32.7988 26.0313 32.2656Z" fill="#FA7027"/>
</svg>
