<svg width="312" height="100" viewBox="0 0 312 100" fill="none" xmlns="http://www.w3.org/2000/svg">
<path d="M215.573 41.3036C215.998 41.3036 216.491 41.2725 217.046 41.2155C217.668 41.1533 218.207 40.9615 218.653 40.6504C219.322 40.1734 219.643 39.2349 219.643 37.7884C219.643 37.1921 219.581 36.6581 219.457 36.207C219.322 35.7093 219.088 35.3308 218.757 35.0767C218.487 34.7812 218.067 34.5946 217.486 34.5064C216.46 34.3509 214.992 34.3405 213.976 34.5375C213.421 34.6464 212.955 34.8331 212.628 35.0819C211.944 35.5226 211.617 36.4766 211.617 38.0113C211.617 39.3438 211.902 40.2045 212.483 40.64C213.059 41.0859 214.07 41.3036 215.573 41.3036Z" fill="#0E1325"/>
<path d="M216.459 45.9806H212.223V48.4434V53.5089V69.9394V73.7865C212.223 75.2019 212.627 76.0989 214.566 76.0989H218.802V73.6361V68.5706V52.1401V48.293C218.802 46.8776 218.398 45.9806 216.459 45.9806Z" fill="#0E1325"/>
<path d="M272.873 13.2153C281.502 13.2153 288.497 20.2102 288.497 28.8394C288.497 37.4686 281.502 44.4634 272.873 44.4634C264.244 44.4633 257.249 37.4686 257.249 28.8394C257.249 20.2102 264.244 13.2154 272.873 13.2153ZM272.873 17.4146C266.57 17.4146 261.448 22.5416 261.448 28.8394C261.448 35.1371 266.575 40.2651 272.873 40.2651C279.171 40.2651 284.299 35.1371 284.299 28.8394C284.299 22.5416 279.176 17.4146 272.873 17.4146Z" fill="#60ACE6" stroke="#60ACE6" stroke-width="0.626022"/>
<path d="M147.042 54.358C146.985 53.3988 146.881 52.5485 146.726 51.833C146.565 51.0968 146.321 50.4435 146 49.8991C145.678 49.3547 145.274 48.857 144.797 48.4215C144.268 47.9289 143.516 47.5141 142.562 47.1771C141.644 46.8505 140.426 46.5757 138.938 46.3475C137.455 46.1246 135.604 45.9535 133.437 45.8446C131.27 45.7306 128.615 45.6787 125.541 45.6787H124.893C120.568 45.6891 116.649 45.8239 113.242 46.0676C109.665 46.3268 106.507 46.5912 103.796 46.8557L102.676 47.0527V76.0614H109.198V53.6944C109.198 52.6833 109.349 52.4189 109.38 52.3774C109.406 52.3411 109.561 52.17 110.277 52.0819C111.293 51.9004 112.734 51.7553 114.554 51.6464C116.389 51.5375 118.474 51.4805 120.75 51.4805C121.341 51.4805 121.439 51.5945 121.434 51.5893C121.476 51.6775 121.574 51.9523 121.574 52.6937V74.7134V76.0563H128.097V74.7134V52.6937C128.097 52.0923 128.18 51.776 128.247 51.6205C128.278 51.5531 128.465 51.4805 128.807 51.4805C132.068 51.4805 134.598 51.5997 136.33 51.8382C138.373 52.1182 139.161 52.533 139.457 52.8337C139.897 53.2744 140.198 53.9329 140.343 54.7832C140.504 55.7164 140.587 57.1681 140.587 59.0917V73.495C140.587 74.563 140.773 75.2267 141.178 75.5741C141.556 75.9007 142.127 76.0614 142.93 76.0614L147.109 76.0666V57.7592C147.125 56.4527 147.094 55.3068 147.042 54.358Z" fill="#0E1325"/>
<path d="M55.3078 37.4511C53.9338 37.4511 53.0731 37.7 52.6117 38.234C52.171 38.7421 51.9584 39.468 51.9584 40.4583V69.0419C51.9584 69.5915 51.8806 70.0166 51.7355 70.3173C51.6421 70.4988 51.3881 70.5921 50.9681 70.5921C50.4807 70.5921 50.123 70.4833 49.9104 70.2655C49.7238 70.0788 49.4075 69.6433 48.9409 68.6271L38.6024 43.3929C38.0684 41.9774 37.5914 40.9249 37.1455 40.1731C36.6893 39.3954 36.1863 38.7992 35.6523 38.3844C35.1546 38.0111 34.4806 37.7104 33.6406 37.4926C32.8111 37.2748 31.66 37.1711 30.1202 37.1711C28.6477 37.1711 27.5226 37.2956 26.6879 37.5548C25.8272 37.8244 25.1998 38.1407 24.7747 38.5244C24.2977 38.9599 23.9296 39.608 23.6807 40.4531C23.4422 41.2671 23.3281 42.3611 23.3281 43.7921V76.0569H25.8946C27.0819 76.0569 27.9426 75.865 28.5181 75.4606C29.1454 75.0251 29.4617 74.1956 29.4617 72.9823V44.0669C29.4617 43.4914 29.5706 43.2684 29.6328 43.1803C29.6328 43.1803 29.7624 43.0196 30.452 43.0196C30.9757 43.0196 31.349 43.1284 31.5615 43.341C31.7482 43.5277 32.08 43.9943 32.5933 45.1505L42.9888 70.4988C43.8805 72.7853 44.7827 74.2941 45.7678 75.1133C46.3018 75.5229 47.0018 75.8443 47.8417 76.0621C48.6609 76.2746 49.8067 76.3835 51.2533 76.3835C52.9176 76.3835 54.1256 76.2487 54.95 75.9687C55.8003 75.6784 56.4277 75.2895 56.8062 74.8281C57.2209 74.3718 57.5631 73.786 57.8224 73.0756C58.0868 72.3653 58.2164 71.3854 58.2164 70.0892V37.4511H55.3078Z" fill="#0E1325"/>
<path d="M87.559 46.0365V68.4866C87.559 69.2954 87.3879 69.622 87.2842 69.7465C87.1079 69.9642 86.7606 70.1198 86.2265 70.2131C85.6251 70.3531 84.837 70.462 83.883 70.5346C82.929 70.6071 81.9076 70.6434 80.8344 70.6434C79.0715 70.6434 77.682 70.4931 76.7021 70.1924C75.7481 69.902 75.0378 69.5235 74.6075 69.0984C74.2497 68.6784 73.9801 68.0925 73.7935 67.3563C73.6016 66.5838 73.5031 65.4328 73.5031 63.9188V60.839V59.3769V54.3114V52.1857V48.3386C73.5031 46.9231 73.1039 46.0262 71.2011 46.0262H67.0377V46.0314L67.0273 46.0054L67.0325 64.6447C67.0325 65.8372 67.0585 66.8845 67.1155 67.7607C67.1725 68.6525 67.2814 69.4561 67.4318 70.1457C67.5873 70.8508 67.8102 71.4834 68.0902 72.0226C68.3702 72.5618 68.7124 73.0544 69.1272 73.5106C70.0397 74.4231 71.4137 75.1386 73.218 75.6416C74.9808 76.1341 77.4487 76.383 80.5544 76.383C81.7417 76.383 82.9498 76.357 84.1371 76.3C85.3192 76.2482 86.4702 76.16 87.559 76.046C88.6426 75.9371 89.6381 75.8126 90.5506 75.683C91.4631 75.5534 92.2512 75.4134 92.8941 75.2631C93.4748 75.1386 93.7911 74.9572 93.8222 74.9364L94.0711 74.7861V46.0002L87.559 46.0365Z" fill="#0E1325"/>
<path d="M181.412 55.7995C181.241 54.41 181.013 53.1968 180.728 52.1909C180.437 51.1695 180.085 50.314 179.67 49.6452C179.26 48.9815 178.789 48.4009 178.265 47.9135C177.358 47.1254 176.139 46.5188 174.646 46.1144C173.184 45.7151 171.198 45.5129 168.756 45.5129C166.278 45.5129 164.173 45.7514 162.498 46.2284C160.803 46.7106 159.429 47.3898 158.413 48.2505C157.132 49.3393 156.069 50.9621 155.265 53.0723C154.467 55.1618 154.062 57.9201 154.062 61.2643C154.062 63.0219 154.151 64.5566 154.317 65.8372C154.488 67.123 154.737 68.2689 155.063 69.2384C155.39 70.2184 155.784 71.0687 156.23 71.7686C156.681 72.4737 157.21 73.0907 157.785 73.5936C158.807 74.5373 160.238 75.2579 162.031 75.7401C163.789 76.2119 166.055 76.4556 168.756 76.4556C172.515 76.4556 175.123 75.9371 176.932 74.9832C180.137 73.2981 180.691 69.4717 180.691 69.4717L179.95 69.6014C179.95 69.6014 179.297 69.7362 179.115 69.7725C178.172 69.9539 176.855 70.1509 175.201 70.3532C173.562 70.5554 171.789 70.6539 169.923 70.6539C168.113 70.6539 166.542 70.5243 165.267 70.2754C164.054 70.0369 163.157 69.648 162.576 69.1036C161.943 68.5696 161.503 67.88 161.233 66.9831C160.953 66.055 160.808 64.9558 160.808 63.7115C160.808 63.4989 160.849 63.3485 160.912 63.3019C160.932 63.2863 161.16 63.1619 162.187 63.1619H181.651C181.651 63.1619 181.661 61.4302 181.661 60.7613C181.666 58.8533 181.578 57.189 181.412 55.7995ZM174.973 57.0283C174.973 57.2512 174.957 57.4379 174.926 57.5934C174.916 57.6505 174.869 57.749 174.739 57.8838C174.739 57.8838 174.62 57.9616 174.174 57.9616H162.135C161.192 57.9616 160.953 57.8682 160.922 57.8527C160.922 57.8527 160.865 57.7853 160.865 57.526C160.865 57.1113 160.912 56.655 160.995 56.1676C161.083 55.6803 161.207 55.1773 161.368 54.6796C161.523 54.1974 161.726 53.7308 161.964 53.3005C162.187 52.896 162.467 52.5642 162.794 52.2998C163.919 51.3458 165.77 50.8636 168.305 50.8636C169.663 50.8636 170.773 50.9725 171.597 51.1799C172.396 51.3821 173.013 51.6517 173.433 51.9732C173.941 52.3879 174.325 53.0412 174.568 53.9123C174.838 54.8455 174.973 55.898 174.973 57.0283Z" fill="#0E1325"/>
<path d="M208.518 50.5787C208.497 49.7647 208.315 48.93 207.911 48.1004C207.491 47.2449 206.952 46.6383 206.288 46.2858C205.702 45.9954 204.847 45.8139 203.675 45.731C201.368 45.5754 198.018 45.5495 194.503 45.871C192.694 46.0369 188.795 46.5709 188.753 46.5813L188.312 46.6435V73.5991V76.0619H192.512C194.436 76.0619 194.835 75.1649 194.835 73.7495V53.477C194.835 53.0208 194.851 52.6682 194.887 52.4349C194.908 52.2742 194.954 52.1601 195.016 52.0875C195.084 52.0097 195.188 51.9475 195.322 51.9009C195.53 51.8335 195.794 51.7609 196.038 51.7038C196.883 51.6313 197.785 51.5742 198.739 51.5379C200.611 51.4653 202.415 51.455 204.587 51.5639C205.65 51.6209 206.537 51.6831 207.18 51.7505C207.382 51.792 208.481 51.8801 208.481 51.8801C208.481 51.8801 208.528 51.1594 208.518 50.5787Z" fill="#0E1325"/>
<path d="M248.2 60.8186C248.2 60.3468 248.413 59.4239 249.424 57.6611L255.48 46.0161H252.141C251.41 46.0161 250.782 46.0679 250.264 46.1612C249.714 46.2701 249.227 46.462 248.807 46.7367C248.387 47.0115 248.008 47.3745 247.692 47.8152C247.397 48.2351 247.096 48.7277 246.79 49.298L243.617 55.5353C243.15 56.5049 242.647 57.127 242.124 57.3863C241.569 57.6662 240.729 57.8062 239.625 57.8062H235.897C235.404 57.8062 235 57.7907 234.704 57.7544C234.507 57.7336 234.367 57.6766 234.284 57.5936C234.196 57.5055 234.129 57.35 234.092 57.1426C234.082 57.0907 234.077 57.0078 234.072 56.9507V53.4821V48.4166V41.0905V36.025V33.5623H234.02H229.836C227.897 33.5623 227.492 34.4592 227.492 35.8747V39.7218V48.2663V52.1134V56.1523V61.2178V68.5439V73.6094V74.076V76.067H231.728C233.667 76.067 234.072 75.17 234.072 73.7546V69.9075V64.0383C234.098 63.8309 234.149 63.6806 234.227 63.6028C234.321 63.5095 234.461 63.4473 234.658 63.411C234.922 63.3591 235.3 63.3384 235.788 63.3384H239.293C239.925 63.3384 240.459 63.3747 240.874 63.4421C241.237 63.5043 241.548 63.6339 241.813 63.8413C242.103 64.0642 242.383 64.3805 242.647 64.7746C242.927 65.1945 243.233 65.77 243.555 66.4855L246.328 72.531C246.598 73.1842 246.883 73.739 247.184 74.1797C247.5 74.6412 247.863 75.0145 248.262 75.2893C248.667 75.5641 249.144 75.7663 249.688 75.8907C250.207 76.0099 250.844 76.0722 251.581 76.0722H254.857L249.481 64.3805C248.423 62.2599 248.2 61.2748 248.2 60.8186Z" fill="#0E1325"/>
<path d="M272.874 20.662C277.384 20.662 281.05 24.3328 281.05 28.8384C281.05 33.344 277.384 37.02 272.874 37.02C268.363 37.02 264.697 33.3491 264.697 28.8436C264.697 24.338 268.363 20.662 272.874 20.662ZM272.874 17.0897C266.382 17.0897 261.125 22.3523 261.125 28.8384C261.125 35.3245 266.388 40.5871 272.874 40.5871C279.365 40.5871 284.622 35.3245 284.622 28.8384C284.622 22.3523 279.36 17.0897 272.874 17.0897Z" fill="#0E1325"/>
</svg>
